<?xml version="1.0" standalone="no"?>
<!DOCTYPE svg PUBLIC "-//W3C//DTD SVG 20010904//EN"
 "http://www.w3.org/TR/2001/REC-SVG-20010904/DTD/svg10.dtd">
<svg version="1.0" xmlns="http://www.w3.org/2000/svg"
 width="512.000000pt" height="512.000000pt" viewBox="0 0 512.000000 512.000000"
 preserveAspectRatio="xMidYMid meet">
<metadata>
Created by potrace 1.14, written by Peter Selinger 2001-2017
</metadata>
<g transform="translate(0.000000,512.000000) scale(0.100000,-0.100000)"
fill="#000000" stroke="none">
<path d="M3668 5065 c-2 -2 -26 -7 -53 -10 -28 -4 -53 -9 -56 -11 -4 -2 -24
-7 -45 -10 -22 -3 -43 -7 -49 -8 -88 -19 -124 -26 -145 -30 -14 -2 -108 -21
-210 -41 -102 -21 -194 -38 -205 -40 -11 -1 -31 -5 -45 -8 -29 -8 -73 -16
-115 -22 -16 -3 -52 -10 -80 -16 -27 -5 -61 -12 -75 -15 -14 -2 -38 -7 -55
-11 -44 -10 -44 -10 -115 -23 -36 -7 -75 -14 -87 -15 -11 -2 -31 -6 -42 -10
-12 -3 -34 -8 -49 -10 -15 -3 -38 -7 -52 -10 -14 -3 -34 -8 -45 -9 -11 -2 -38
-7 -60 -11 -22 -4 -49 -9 -60 -11 -11 -2 -34 -7 -52 -10 -52 -10 -65 -33 -68
-121 -2 -43 -4 -78 -5 -78 -1 0 -3 -38 -5 -85 -9 -188 -15 -227 -34 -216 -7 5
-24 8 -103 21 -18 3 -41 8 -51 11 -19 6 -43 10 -102 18 -16 3 -41 7 -55 10
-14 3 -54 10 -90 16 -36 6 -78 13 -95 16 -16 3 -39 7 -50 9 -11 2 -31 6 -45 9
-14 3 -38 8 -55 10 -16 3 -55 9 -85 15 -30 5 -71 12 -90 16 -19 3 -84 15 -145
26 -60 11 -123 22 -140 24 -16 3 -41 7 -55 10 -14 3 -52 10 -85 16 -85 14 -99
17 -105 19 -3 1 -8 2 -12 1 -4 0 -38 5 -75 13 -76 16 -145 27 -183 30 -78 6
-147 -91 -116 -164 10 -24 255 -458 276 -490 6 -8 15 -26 21 -40 5 -13 13 -27
17 -30 4 -3 15 -21 26 -40 22 -42 87 -157 146 -260 24 -41 56 -97 72 -125 16
-27 34 -61 41 -75 6 -14 14 -27 18 -30 3 -3 25 -41 49 -85 24 -44 47 -82 52
-83 4 -2 8 -12 8 -23 0 -10 3 -19 8 -19 4 0 13 -15 21 -32 8 -18 17 -35 21
-38 3 -3 29 -45 56 -95 76 -136 100 -179 180 -318 41 -71 74 -133 74 -138 0
-5 3 -9 8 -9 4 0 18 -21 31 -48 14 -26 30 -54 37 -62 7 -8 13 -19 14 -25 1 -5
26 -51 56 -102 30 -51 54 -97 54 -102 0 -6 5 -11 10 -11 6 0 10 -4 10 -9 0 -5
51 -98 113 -207 63 -110 125 -219 139 -244 14 -25 86 -151 160 -280 74 -129
147 -256 161 -282 15 -27 39 -69 54 -95 14 -27 37 -65 49 -85 20 -31 22 -42
13 -65 -6 -15 -13 -39 -15 -52 -12 -61 -24 -55 -64 32 -19 39 -37 74 -41 77
-4 3 -10 17 -14 32 -4 15 -13 32 -21 39 -8 6 -14 17 -14 23 0 22 -80 168 -85
154 -7 -22 -126 -390 -137 -428 -6 -19 -21 -62 -32 -95 l-22 -60 21 -42 c12
-23 26 -47 32 -55 6 -7 23 -35 38 -63 55 -99 80 -143 96 -165 15 -22 19 -23
190 -22 220 0 209 -1 209 17 0 8 6 29 14 47 11 28 49 142 52 158 0 3 6 16 12
30 7 17 11 19 11 8 1 -9 5 -18 9 -20 4 -2 34 -50 67 -108 32 -58 64 -110 70
-116 37 -38 105 -47 152 -19 15 9 44 43 63 76 19 32 38 59 44 59 5 0 7 -2 4
-5 -3 -3 4 -33 16 -67 l21 -61 170 0 c94 1 180 2 191 2 16 1 26 13 39 49 10
26 23 61 30 77 15 34 28 68 29 75 1 3 7 14 13 25 6 11 13 29 14 40 2 11 6 22
9 25 3 3 60 145 128 315 68 171 127 319 132 330 29 66 110 274 110 283 0 7 4
12 8 12 5 0 9 6 9 13 2 20 27 81 38 89 6 4 7 8 3 8 -4 0 2 21 12 46 11 25 20
51 20 58 0 8 -35 12 -126 11 -125 0 -145 4 -126 28 5 7 24 39 42 72 18 33 42
75 52 92 41 73 61 110 81 148 12 22 28 48 36 58 8 9 10 17 5 17 -5 0 -4 4 2 8
9 6 53 81 111 192 13 25 28 52 33 60 19 30 113 197 158 280 25 47 48 87 51 90
3 3 16 25 28 50 13 25 27 52 33 60 5 8 35 62 67 120 31 58 61 108 66 111 4 3
9 12 10 20 2 8 12 30 24 49 45 74 203 363 203 371 0 5 3 9 8 9 4 0 18 24 32
53 14 28 27 54 30 57 3 3 37 61 75 130 38 69 71 127 74 130 3 3 7 12 9 20 2 8
9 22 16 30 7 8 25 39 40 69 37 72 50 95 57 101 3 3 12 19 20 35 9 17 43 80 78
142 34 62 64 124 67 138 7 41 -30 110 -68 126 -43 18 -70 16 -228 -16 -14 -2
-38 -7 -55 -10 -53 -9 -247 -44 -280 -51 -11 -2 -35 -6 -54 -9 -18 -2 -41 -7
-50 -9 -9 -3 -36 -8 -61 -11 -25 -4 -74 -13 -110 -20 -36 -7 -85 -16 -110 -20
-24 -4 -47 -8 -50 -10 -3 -2 -23 -6 -45 -9 -96 -16 -109 -18 -129 -22 -11 -3
-37 -7 -56 -10 -19 -2 -42 -6 -50 -9 -8 -2 -32 -7 -54 -11 -21 -3 -47 -7 -58
-9 -17 -4 -19 0 -13 28 4 18 12 38 17 45 6 6 8 12 5 12 -3 0 2 21 10 48 8 26
19 63 24 82 12 44 10 36 65 225 86 299 88 311 40 333 -13 6 -26 9 -28 7z
m-683 -4331 c-8 -16 -15 -23 -15 -16 0 13 22 53 27 48 2 -2 -3 -16 -12 -32z"/>
<path d="M689 1640 c-3 -13 -5 -1436 -2 -1445 4 -11 349 -12 360 -1 4 3 7 115
7 249 l1 242 140 1 c140 2 202 6 261 19 29 6 33 13 59 98 34 109 30 98 38 117
11 28 38 117 42 138 2 12 7 28 12 35 4 6 9 19 10 27 2 8 25 83 52 165 46 142
48 151 34 175 -51 81 -161 148 -288 176 -37 8 -725 12 -726 4z m578 -284 c106
-20 158 -90 152 -204 -7 -132 -84 -183 -269 -179 l-95 2 -1 190 c-1 105 0 192
2 195 3 7 170 3 211 -4z"/>
<path d="M3980 1625 c0 -8 -4 -23 -10 -33 -16 -27 -93 -226 -93 -239 0 -7 -4
-13 -9 -13 -4 0 -8 -6 -8 -14 0 -7 -8 -31 -17 -52 -9 -22 -17 -41 -18 -44 0
-3 -6 -19 -14 -37 -12 -30 -10 -40 19 -125 18 -51 37 -101 42 -111 5 -10 12
-31 14 -45 3 -15 10 -32 16 -39 6 -7 7 -13 3 -13 -4 0 -2 -7 5 -15 7 -8 9 -15
5 -15 -4 0 -3 -6 3 -12 5 -7 15 -30 20 -50 l10 -38 -116 1 c-213 1 -201 2
-214 -28 -6 -16 -12 -32 -14 -38 -1 -5 -20 -53 -42 -106 -22 -53 -37 -101 -33
-105 3 -5 121 -9 261 -9 163 0 255 -4 256 -10 1 -11 1 -12 41 -118 13 -37 26
-73 27 -80 1 -6 7 -21 13 -32 10 -19 21 -20 202 -19 105 0 194 3 197 6 5 5 -6
37 -88 253 -16 44 -39 105 -50 135 -11 30 -24 64 -28 75 -4 11 -17 45 -29 75
-11 30 -26 69 -32 85 -7 17 -13 35 -15 40 -4 15 -154 415 -169 450 -7 17 -25
66 -40 110 -16 44 -32 84 -37 90 -4 5 -8 16 -8 25 0 8 -7 28 -15 44 -8 15 -15
34 -15 42 0 7 -4 16 -10 19 -5 3 -10 -1 -10 -10z"/>
</g>
</svg>
